<mxfile host="app.diagrams.net" modified="2022-02-16T13:13:08.983Z" agent="5.0 (Macintosh; Intel Mac OS X 10_15_7) AppleWebKit/537.36 (KHTML, like Gecko) Chrome/98.0.4758.80 Safari/537.36" etag="hdds7d7aFlKGAFaaHbZU" version="16.5.6" type="github">
  <diagram name="Page-1" id="e7e014a7-5840-1c2e-5031-d8a46d1fe8dd">
    <mxGraphModel dx="1298" dy="826" grid="1" gridSize="10" guides="1" tooltips="1" connect="1" arrows="1" fold="1" page="1" pageScale="1" pageWidth="4681" pageHeight="3300" background="none" math="0" shadow="0">
      <root>
        <mxCell id="0" />
        <mxCell id="1" parent="0" />
        <mxCell id="KgOzRK0zYqrNxTZlivyG-42" value="TP" style="swimlane;" vertex="1" parent="1">
          <mxGeometry x="110" y="140" width="160" height="800" as="geometry" />
        </mxCell>
        <mxCell id="KgOzRK0zYqrNxTZlivyG-49" value="1.付款" style="rounded=0;whiteSpace=wrap;html=1;" vertex="1" parent="KgOzRK0zYqrNxTZlivyG-42">
          <mxGeometry x="42.5" y="50" width="75" height="30" as="geometry" />
        </mxCell>
        <mxCell id="KgOzRK0zYqrNxTZlivyG-97" value="" style="endArrow=none;dashed=1;html=1;rounded=0;" edge="1" parent="KgOzRK0zYqrNxTZlivyG-42">
          <mxGeometry width="50" height="50" relative="1" as="geometry">
            <mxPoint x="-70" y="520" as="sourcePoint" />
            <mxPoint x="870" y="520" as="targetPoint" />
          </mxGeometry>
        </mxCell>
        <mxCell id="KgOzRK0zYqrNxTZlivyG-98" value="发货仓库存上架" style="edgeLabel;html=1;align=center;verticalAlign=middle;resizable=0;points=[];" vertex="1" connectable="0" parent="KgOzRK0zYqrNxTZlivyG-97">
          <mxGeometry x="-0.9768" relative="1" as="geometry">
            <mxPoint as="offset" />
          </mxGeometry>
        </mxCell>
        <mxCell id="KgOzRK0zYqrNxTZlivyG-45" value="IPM" style="swimlane;startSize=23;" vertex="1" parent="1">
          <mxGeometry x="270" y="140" width="160" height="800" as="geometry" />
        </mxCell>
        <mxCell id="KgOzRK0zYqrNxTZlivyG-52" value="2.负卖打标" style="rounded=0;whiteSpace=wrap;html=1;" vertex="1" parent="KgOzRK0zYqrNxTZlivyG-45">
          <mxGeometry x="42.5" y="90" width="75" height="30" as="geometry" />
        </mxCell>
        <mxCell id="KgOzRK0zYqrNxTZlivyG-46" value="LC" style="swimlane;startSize=23;" vertex="1" parent="1">
          <mxGeometry x="430" y="140" width="160" height="800" as="geometry" />
        </mxCell>
        <mxCell id="KgOzRK0zYqrNxTZlivyG-53" value="3.创LP单" style="rounded=0;whiteSpace=wrap;html=1;" vertex="1" parent="KgOzRK0zYqrNxTZlivyG-46">
          <mxGeometry x="42.5" y="90" width="75" height="30" as="geometry" />
        </mxCell>
        <mxCell id="KgOzRK0zYqrNxTZlivyG-47" value="UOP" style="swimlane;startSize=23;" vertex="1" parent="1">
          <mxGeometry x="590" y="140" width="160" height="800" as="geometry" />
        </mxCell>
        <mxCell id="KgOzRK0zYqrNxTZlivyG-63" style="edgeStyle=orthogonalEdgeStyle;rounded=0;orthogonalLoop=1;jettySize=auto;html=1;exitX=0.5;exitY=1;exitDx=0;exitDy=0;entryX=0.5;entryY=0;entryDx=0;entryDy=0;" edge="1" parent="KgOzRK0zYqrNxTZlivyG-47" source="KgOzRK0zYqrNxTZlivyG-54" target="KgOzRK0zYqrNxTZlivyG-55">
          <mxGeometry relative="1" as="geometry" />
        </mxCell>
        <mxCell id="KgOzRK0zYqrNxTZlivyG-54" value="4.创SCP单" style="rounded=0;whiteSpace=wrap;html=1;" vertex="1" parent="KgOzRK0zYqrNxTZlivyG-47">
          <mxGeometry x="42.5" y="90" width="75" height="30" as="geometry" />
        </mxCell>
        <mxCell id="KgOzRK0zYqrNxTZlivyG-64" style="edgeStyle=orthogonalEdgeStyle;rounded=0;orthogonalLoop=1;jettySize=auto;html=1;exitX=0.5;exitY=1;exitDx=0;exitDy=0;entryX=0.5;entryY=0;entryDx=0;entryDy=0;" edge="1" parent="KgOzRK0zYqrNxTZlivyG-47" source="KgOzRK0zYqrNxTZlivyG-55" target="KgOzRK0zYqrNxTZlivyG-56">
          <mxGeometry relative="1" as="geometry" />
        </mxCell>
        <mxCell id="KgOzRK0zYqrNxTZlivyG-55" value="5.分仓" style="rounded=0;whiteSpace=wrap;html=1;" vertex="1" parent="KgOzRK0zYqrNxTZlivyG-47">
          <mxGeometry x="42.5" y="140" width="75" height="30" as="geometry" />
        </mxCell>
        <mxCell id="KgOzRK0zYqrNxTZlivyG-65" style="edgeStyle=orthogonalEdgeStyle;rounded=0;orthogonalLoop=1;jettySize=auto;html=1;exitX=0.5;exitY=1;exitDx=0;exitDy=0;entryX=0.5;entryY=0;entryDx=0;entryDy=0;" edge="1" parent="KgOzRK0zYqrNxTZlivyG-47" source="KgOzRK0zYqrNxTZlivyG-56" target="KgOzRK0zYqrNxTZlivyG-57">
          <mxGeometry relative="1" as="geometry" />
        </mxCell>
        <mxCell id="KgOzRK0zYqrNxTZlivyG-56" value="6.补货处理" style="rounded=0;whiteSpace=wrap;html=1;" vertex="1" parent="KgOzRK0zYqrNxTZlivyG-47">
          <mxGeometry x="42.5" y="190" width="75" height="30" as="geometry" />
        </mxCell>
        <mxCell id="KgOzRK0zYqrNxTZlivyG-57" value="7.HOLD单" style="rounded=0;whiteSpace=wrap;html=1;" vertex="1" parent="KgOzRK0zYqrNxTZlivyG-47">
          <mxGeometry x="42.5" y="240" width="75" height="30" as="geometry" />
        </mxCell>
        <mxCell id="KgOzRK0zYqrNxTZlivyG-85" style="edgeStyle=orthogonalEdgeStyle;rounded=0;orthogonalLoop=1;jettySize=auto;html=1;exitX=0.5;exitY=1;exitDx=0;exitDy=0;entryX=0.5;entryY=0;entryDx=0;entryDy=0;" edge="1" parent="KgOzRK0zYqrNxTZlivyG-47" source="KgOzRK0zYqrNxTZlivyG-58" target="KgOzRK0zYqrNxTZlivyG-84">
          <mxGeometry relative="1" as="geometry" />
        </mxCell>
        <mxCell id="KgOzRK0zYqrNxTZlivyG-58" value="14.补货处理" style="rounded=0;whiteSpace=wrap;html=1;" vertex="1" parent="KgOzRK0zYqrNxTZlivyG-47">
          <mxGeometry x="42.5" y="690" width="75" height="30" as="geometry" />
        </mxCell>
        <mxCell id="KgOzRK0zYqrNxTZlivyG-84" value="15.下发履行" style="rounded=0;whiteSpace=wrap;html=1;" vertex="1" parent="KgOzRK0zYqrNxTZlivyG-47">
          <mxGeometry x="42.5" y="750" width="75" height="30" as="geometry" />
        </mxCell>
        <mxCell id="KgOzRK0zYqrNxTZlivyG-59" value="猫超bundle" style="swimlane;startSize=23;" vertex="1" parent="1">
          <mxGeometry x="750" y="140" width="160" height="800" as="geometry" />
        </mxCell>
        <mxCell id="KgOzRK0zYqrNxTZlivyG-93" value="" style="rounded=0;whiteSpace=wrap;html=1;dashed=1;" vertex="1" parent="KgOzRK0zYqrNxTZlivyG-59">
          <mxGeometry x="20" y="538" width="120" height="112" as="geometry" />
        </mxCell>
        <mxCell id="KgOzRK0zYqrNxTZlivyG-92" value="" style="rounded=0;whiteSpace=wrap;html=1;dashed=1;" vertex="1" parent="KgOzRK0zYqrNxTZlivyG-59">
          <mxGeometry x="20" y="318" width="120" height="172" as="geometry" />
        </mxCell>
        <mxCell id="KgOzRK0zYqrNxTZlivyG-86" style="edgeStyle=orthogonalEdgeStyle;rounded=0;orthogonalLoop=1;jettySize=auto;html=1;exitX=0.5;exitY=1;exitDx=0;exitDy=0;entryX=0.5;entryY=0;entryDx=0;entryDy=0;" edge="1" parent="KgOzRK0zYqrNxTZlivyG-59" source="KgOzRK0zYqrNxTZlivyG-66" target="KgOzRK0zYqrNxTZlivyG-79">
          <mxGeometry relative="1" as="geometry" />
        </mxCell>
        <mxCell id="KgOzRK0zYqrNxTZlivyG-66" value="8.捞取缺货scp单" style="rounded=0;whiteSpace=wrap;html=1;" vertex="1" parent="KgOzRK0zYqrNxTZlivyG-59">
          <mxGeometry x="42.5" y="333" width="75" height="30" as="geometry" />
        </mxCell>
        <mxCell id="KgOzRK0zYqrNxTZlivyG-88" style="edgeStyle=orthogonalEdgeStyle;rounded=0;orthogonalLoop=1;jettySize=auto;html=1;exitX=0.5;exitY=1;exitDx=0;exitDy=0;entryX=0.5;entryY=0;entryDx=0;entryDy=0;" edge="1" parent="KgOzRK0zYqrNxTZlivyG-59" source="KgOzRK0zYqrNxTZlivyG-67" target="KgOzRK0zYqrNxTZlivyG-82">
          <mxGeometry relative="1" as="geometry" />
        </mxCell>
        <mxCell id="KgOzRK0zYqrNxTZlivyG-67" value="12.订正scp信息" style="rounded=0;whiteSpace=wrap;html=1;" vertex="1" parent="KgOzRK0zYqrNxTZlivyG-59">
          <mxGeometry x="42.5" y="553" width="75" height="30" as="geometry" />
        </mxCell>
        <mxCell id="KgOzRK0zYqrNxTZlivyG-87" style="edgeStyle=orthogonalEdgeStyle;rounded=0;orthogonalLoop=1;jettySize=auto;html=1;exitX=0.5;exitY=1;exitDx=0;exitDy=0;entryX=0.5;entryY=0;entryDx=0;entryDy=0;" edge="1" parent="KgOzRK0zYqrNxTZlivyG-59" source="KgOzRK0zYqrNxTZlivyG-79" target="KgOzRK0zYqrNxTZlivyG-81">
          <mxGeometry relative="1" as="geometry" />
        </mxCell>
        <mxCell id="KgOzRK0zYqrNxTZlivyG-79" value="9.决策实际发货仓库" style="rounded=0;whiteSpace=wrap;html=1;" vertex="1" parent="KgOzRK0zYqrNxTZlivyG-59">
          <mxGeometry x="42.5" y="385" width="75" height="30" as="geometry" />
        </mxCell>
        <mxCell id="KgOzRK0zYqrNxTZlivyG-81" value="10.汇总发货仓补货量" style="rounded=0;whiteSpace=wrap;html=1;" vertex="1" parent="KgOzRK0zYqrNxTZlivyG-59">
          <mxGeometry x="42.5" y="440" width="75" height="30" as="geometry" />
        </mxCell>
        <mxCell id="KgOzRK0zYqrNxTZlivyG-82" value="13.执行换仓" style="rounded=0;whiteSpace=wrap;html=1;" vertex="1" parent="KgOzRK0zYqrNxTZlivyG-59">
          <mxGeometry x="42.5" y="603" width="75" height="30" as="geometry" />
        </mxCell>
        <mxCell id="KgOzRK0zYqrNxTZlivyG-60" style="edgeStyle=orthogonalEdgeStyle;rounded=0;orthogonalLoop=1;jettySize=auto;html=1;exitX=0.5;exitY=1;exitDx=0;exitDy=0;entryX=0;entryY=0.5;entryDx=0;entryDy=0;" edge="1" parent="1" source="KgOzRK0zYqrNxTZlivyG-49" target="KgOzRK0zYqrNxTZlivyG-52">
          <mxGeometry relative="1" as="geometry">
            <mxPoint x="310" y="205" as="targetPoint" />
          </mxGeometry>
        </mxCell>
        <mxCell id="KgOzRK0zYqrNxTZlivyG-61" style="edgeStyle=orthogonalEdgeStyle;rounded=0;orthogonalLoop=1;jettySize=auto;html=1;exitX=1;exitY=0.5;exitDx=0;exitDy=0;entryX=0;entryY=0.5;entryDx=0;entryDy=0;" edge="1" parent="1" source="KgOzRK0zYqrNxTZlivyG-52" target="KgOzRK0zYqrNxTZlivyG-53">
          <mxGeometry relative="1" as="geometry" />
        </mxCell>
        <mxCell id="KgOzRK0zYqrNxTZlivyG-62" style="edgeStyle=orthogonalEdgeStyle;rounded=0;orthogonalLoop=1;jettySize=auto;html=1;exitX=1;exitY=0.5;exitDx=0;exitDy=0;entryX=0;entryY=0.5;entryDx=0;entryDy=0;" edge="1" parent="1" source="KgOzRK0zYqrNxTZlivyG-53" target="KgOzRK0zYqrNxTZlivyG-54">
          <mxGeometry relative="1" as="geometry" />
        </mxCell>
        <mxCell id="KgOzRK0zYqrNxTZlivyG-83" style="edgeStyle=orthogonalEdgeStyle;rounded=0;orthogonalLoop=1;jettySize=auto;html=1;exitX=0.5;exitY=1;exitDx=0;exitDy=0;entryX=0.5;entryY=0;entryDx=0;entryDy=0;" edge="1" parent="1" source="KgOzRK0zYqrNxTZlivyG-82" target="KgOzRK0zYqrNxTZlivyG-58">
          <mxGeometry relative="1" as="geometry" />
        </mxCell>
        <mxCell id="KgOzRK0zYqrNxTZlivyG-94" value="" style="endArrow=none;dashed=1;html=1;rounded=0;" edge="1" parent="1">
          <mxGeometry width="50" height="50" relative="1" as="geometry">
            <mxPoint x="40" y="440" as="sourcePoint" />
            <mxPoint x="980" y="440" as="targetPoint" />
          </mxGeometry>
        </mxCell>
        <mxCell id="KgOzRK0zYqrNxTZlivyG-95" value="负卖结束" style="edgeLabel;html=1;align=center;verticalAlign=middle;resizable=0;points=[];" vertex="1" connectable="0" parent="KgOzRK0zYqrNxTZlivyG-94">
          <mxGeometry x="-0.9768" relative="1" as="geometry">
            <mxPoint as="offset" />
          </mxGeometry>
        </mxCell>
        <mxCell id="KgOzRK0zYqrNxTZlivyG-96" value="1.预占直播仓的IPM负卖库存&lt;br&gt;14.占用发货仓的AIC可售库存，同时AIC同步IPM，IPM进行换占&lt;br&gt;8、9、10.负卖结束后，捞取直播仓的缺货履约单，根据业务提供的发货仓，结合sdp的仓路由决策，决策出每个履约单的发货仓库，根据发货仓库和品的数量汇总出每个发货仓库的补货量，通知采购小二&lt;br&gt;12、13.货物实际入库之后，需要马上通知行业技术执行换仓，行业技术将履约单和发货仓导入系统，订正履约单信息后，重新调度履约单&lt;br&gt;" style="text;html=1;strokeColor=none;fillColor=none;align=left;verticalAlign=middle;whiteSpace=wrap;rounded=0;dashed=1;" vertex="1" parent="1">
          <mxGeometry x="170" y="950" width="400" height="170" as="geometry" />
        </mxCell>
      </root>
    </mxGraphModel>
  </diagram>
</mxfile>
